<svg width="86" height="30" viewBox="0 0 86 30" fill="none" xmlns="http://www.w3.org/2000/svg">
<g clip-path="url(#clip0_1286_517)">
<path d="M44.4821 1.40489C40.9696 0.512917 37.5969 6.12259 35.7591 13.6303C33.9198 21.1395 34.3114 27.7031 37.8239 28.5951C41.3364 29.4871 44.7091 23.8774 46.5469 16.3682C48.3862 8.85909 47.9946 2.29544 44.4821 1.40348M55.5205 14.9986C55.1094 23.2828 48.764 29.9986 40.4105 29.9986C32.057 29.9986 26.3773 23.2828 26.7869 14.9986C27.1966 6.71583 33.542 0 41.8969 0C50.2518 0 55.9315 6.71583 55.5205 15M74.9414 1.40489C71.429 0.512917 68.0563 6.12259 66.2184 13.6303C64.3805 21.1395 64.7708 27.7031 68.2833 28.5951C71.7971 29.4871 75.1684 23.8774 77.0063 16.3682C78.8442 8.85909 78.4539 2.29544 74.9414 1.40348M85.9784 14.9986C85.5674 23.2828 79.222 29.9986 70.8685 29.9986C62.515 29.9986 56.8338 23.2828 57.2449 14.9986C57.6559 6.71442 64.0013 0 72.3562 0C80.7111 0 86.3908 6.71583 85.9798 15M25.3559 19.6557C25.1276 26.3095 18.9967 29.9169 12.6859 29.9169C7.33827 29.9169 2.34498 27.0056 0.00195312 25.2344L2.63838 17.7745L2.79615 17.8323C7.13206 24.4312 10.8161 28.977 14.6677 28.6219C17.2155 28.388 18.7282 26.807 18.8361 23.6731C18.9856 19.3147 15.7181 13.9108 3.42308 16.14L3.23901 16.0723L8.77204 0.415688H27.3211L24.8314 7.46125H7.45314L5.81454 12.0972C15.635 6.96101 25.605 12.3791 25.3545 19.6529" fill="#0A1E25"/>
</g>
<defs>
<clipPath id="clip0_1286_517">
<rect width="86" height="30" fill="white"/>
</clipPath>
</defs>
</svg>
