<?xml version="1.0" standalone="no"?>
<!DOCTYPE svg PUBLIC "-//W3C//DTD SVG 20010904//EN"
 "http://www.w3.org/TR/2001/REC-SVG-20010904/DTD/svg10.dtd">
<svg version="1.0" xmlns="http://www.w3.org/2000/svg"
 width="1222.000000pt" height="424.000000pt" viewBox="0 0 1222.000000 424.000000"
 preserveAspectRatio="xMidYMid meet">
<metadata>
Created by potrace 1.10, written by Peter Selinger 2001-2011
</metadata>
<g transform="translate(0.000000,424.000000) scale(0.100000,-0.100000)"
fill="#000000" stroke="none">
<path d="M4460 3486 c0 -678 -2 -754 -16 -760 -9 -3 -1012 -6 -2230 -6 -2207
0 -2214 0 -2214 -20 0 -20 7 -20 2250 -20 l2250 0 0 780 c0 773 0 780 -20 780
-20 0 -20 -7 -20 -754z"/>
<path d="M923 3936 c-17 -8 -66 -56 -109 -108 -43 -51 -108 -122 -144 -158
l-65 -65 -5 82 c-8 133 -25 141 -272 133 -135 -4 -151 -7 -165 -25 -13 -17
-14 -48 -9 -205 4 -102 6 -192 6 -200 -1 -8 -4 -83 -6 -166 l-5 -152 27 -21
c25 -19 39 -21 193 -21 160 0 167 1 196 24 27 22 30 30 33 100 3 56 8 76 18
76 7 0 55 -48 106 -107 51 -59 121 -136 155 -172 l62 -66 185 0 c179 0 185 1
209 23 14 13 27 34 29 47 10 50 -14 82 -231 313 -64 68 -120 134 -125 147 -8
21 -3 31 40 77 295 318 314 340 314 378 0 16 -10 36 -26 51 -25 23 -31 24
-202 26 -135 2 -185 0 -209 -11z m404 -38 c23 -19 14 -35 -59 -115 -149 -162
-256 -279 -290 -318 l-36 -40 62 -66 c33 -36 104 -112 156 -169 52 -57 102
-111 110 -120 35 -35 70 -88 70 -103 0 -8 -12 -25 -26 -36 -25 -19 -40 -21
-193 -21 l-166 0 -61 68 c-34 37 -96 108 -138 157 -88 103 -147 152 -193 161
-32 6 -33 8 -33 55 0 45 2 49 24 49 14 0 28 -4 31 -10 3 -5 14 -10 24 -10 35
0 128 -80 231 -199 58 -67 117 -136 132 -153 26 -30 29 -30 130 -33 57 -1 106
-1 109 1 3 2 -26 36 -65 76 -39 40 -100 105 -136 143 -36 39 -93 101 -127 138
-35 36 -63 69 -63 73 0 4 19 28 43 53 23 25 89 98 147 161 58 63 122 130 143
150 20 20 37 38 37 41 0 7 -215 -3 -220 -11 -7 -10 -88 -104 -174 -201 -67
-77 -126 -129 -144 -129 -6 0 -12 -5 -14 -12 -3 -7 -38 -13 -96 -16 l-92 -4 0
46 0 46 59 0 c64 0 92 11 144 56 32 28 138 145 226 251 24 29 53 54 65 56 46
8 370 -4 383 -15z m-237 -109 c0 -12 -79 -104 -182 -214 -144 -154 -145 -141
13 -310 53 -58 131 -143 177 -194 12 -14 22 -28 22 -33 0 -4 -24 -8 -54 -8
-59 0 -51 -6 -175 140 -97 116 -175 189 -227 217 -30 15 -53 32 -51 37 2 6 21
20 42 32 62 34 107 76 217 202 56 64 109 122 118 129 19 16 100 17 100 2z
m-536 -21 c11 -15 16 -45 16 -91 l0 -68 -47 3 -48 3 3 40 3 40 -105 0 -106 0
0 -102 0 -103 -50 0 -50 0 0 150 0 150 184 0 c180 0 185 -1 200 -22z m-128
-113 c7 -2 19 -18 28 -36 21 -41 7 -59 -45 -59 -67 0 -91 -39 -64 -104 7 -16
5 -17 -16 -11 -41 13 -48 23 -38 58 5 18 9 60 9 94 0 50 3 62 18 66 16 4 84
-1 108 -8z m2 -150 c4 -42 43 -125 59 -125 8 0 13 -12 13 -30 0 -27 -3 -30
-30 -30 -20 0 -30 5 -30 15 0 8 -14 17 -37 21 -21 4 -42 10 -48 14 -5 5 -27
11 -48 15 -20 4 -39 11 -42 15 -3 5 -20 4 -38 -1 -17 -5 -33 -9 -34 -9 -2 0
-3 16 -3 35 0 32 3 35 29 35 16 0 31 -6 35 -15 3 -8 12 -15 20 -15 18 0 102
-27 133 -42 13 -6 26 -9 29 -6 9 10 -45 88 -61 88 -11 0 -15 11 -15 36 0 34 1
35 33 32 28 -3 32 -7 35 -33z m-158 -242 l0 -108 106 -2 106 -2 -5 45 c-2 24
-1 44 4 45 5 0 26 1 47 2 l37 0 3 -69 c4 -110 8 -108 -205 -114 -98 -3 -181
-4 -185 -2 -5 2 -8 73 -8 158 l0 154 50 0 50 0 0 -107z m115 66 c25 -12 48
-25 51 -30 3 -5 20 -9 37 -9 l32 -1 -26 -22 c-15 -12 -29 -34 -33 -49 -6 -27
-8 -28 -76 -28 l-70 0 0 80 c0 92 6 96 85 59z"/>
<path d="M3828 3749 c-28 -28 -30 -34 -25 -80 6 -48 5 -50 -16 -42 -12 4 -45
8 -74 8 -47 0 -56 -4 -92 -39 -21 -21 -44 -35 -50 -32 -6 4 -11 40 -11 86 0
73 -2 80 -26 99 -38 30 -94 28 -125 -5 -21 -23 -25 -37 -29 -132 l-5 -106 -34
42 c-96 122 -269 131 -386 21 -28 -27 -55 -49 -58 -49 -4 0 -7 45 -7 100 0 94
-2 103 -25 125 -48 49 -145 18 -145 -45 0 -54 -7 -60 -74 -60 -97 0 -133 -15
-197 -80 l-57 -59 -18 26 c-49 75 -120 112 -215 113 -129 0 -221 -70 -252
-190 l-13 -52 -55 -1 c-50 -2 -60 -6 -103 -44 -51 -45 -95 -59 -145 -48 -143
31 -150 248 -8 286 54 14 88 4 153 -47 47 -36 65 -44 99 -44 46 0 85 30 85 67
0 58 -115 170 -198 193 -88 24 -231 4 -287 -41 -93 -74 -135 -158 -135 -269 0
-185 132 -322 313 -324 108 -1 169 24 241 98 54 55 60 58 70 41 25 -43 80 -95
123 -116 105 -51 249 -15 315 77 l32 45 32 -39 c73 -87 159 -121 255 -98 31 7
64 9 75 5 10 -4 34 -8 52 -8 40 -1 82 36 82 73 0 54 10 56 52 11 109 -119 274
-120 383 -4 40 43 46 55 41 80 -3 16 -2 29 3 29 5 0 11 -32 13 -72 5 -62 9
-75 32 -95 50 -43 120 -25 146 37 l13 31 36 -34 c20 -19 46 -40 58 -46 30 -15
93 -14 126 4 26 13 31 13 50 0 30 -21 80 -19 111 6 l27 21 -1 227 c0 124 3
247 6 273 6 43 4 50 -24 78 -42 42 -92 42 -134 -1z m-2121 -29 c57 -13 126
-65 162 -124 31 -49 27 -56 -28 -56 -43 0 -52 4 -70 29 -54 76 -185 93 -259
34 -51 -41 -71 -86 -72 -158 0 -50 5 -69 27 -103 34 -51 92 -82 156 -82 61 0
94 14 135 57 29 31 41 37 83 39 59 3 60 -4 17 -67 -64 -94 -188 -145 -291
-119 -98 24 -161 71 -203 150 -29 53 -27 210 3 265 39 74 105 122 191 140 60
13 66 13 149 -5z m2243 -35 l0 -55 -55 0 -55 0 0 55 0 55 55 0 55 0 0 -55z
m-1099 -235 l0 -275 -46 -1 c-41 -1 -45 0 -45 23 l0 24 -25 -19 c-13 -10 -44
-25 -69 -32 -77 -21 -167 21 -221 105 -29 43 -28 177 0 220 49 74 102 105 177
105 57 0 118 -22 118 -42 0 -4 5 -8 11 -8 7 0 10 29 9 83 -1 45 -2 86 -1 90 1
4 21 7 46 5 l46 -3 0 -275z m670 150 c-1 -69 -5 -135 -8 -147 -6 -28 11 -30
29 -5 7 10 40 49 72 85 l60 67 64 0 64 0 -95 -102 c-53 -57 -96 -107 -97 -112
-1 -4 42 -52 95 -106 97 -99 112 -128 55 -108 -17 5 -41 7 -54 4 -20 -5 -36 7
-100 74 -66 71 -95 94 -89 71 1 -3 3 -38 4 -76 l3 -70 -52 -2 -52 -1 0 279 0
280 51 -3 51 -3 -1 -125z m-281 -18 c76 -47 106 -94 116 -176 l7 -56 -172 0
c-117 0 -171 -3 -171 -11 0 -21 40 -67 70 -79 35 -15 95 -8 119 14 19 17 123
25 128 10 2 -6 -16 -29 -41 -52 -60 -55 -139 -79 -205 -62 -97 26 -148 78
-170 175 -27 118 55 238 174 254 56 8 115 1 145 -17z m-976 -5 c22 -12 53 -39
70 -60 28 -35 31 -46 34 -120 4 -97 -12 -134 -76 -183 -111 -86 -265 -53 -331
71 -44 83 -18 217 54 268 55 40 70 45 140 46 55 0 78 -4 109 -22z m1684 -189
l-3 -213 -50 0 -50 0 -3 213 -2 212 55 0 55 0 -2 -212z m-154 -137 c-7 -8
-123 120 -124 136 0 7 28 42 63 79 l62 67 3 -138 c1 -76 0 -141 -4 -144z"/>
<path d="M2585 3501 c-26 -11 -49 -38 -65 -79 -28 -72 34 -162 112 -162 117 0
168 132 83 217 -26 26 -41 33 -71 32 -22 0 -48 -4 -59 -8z m108 -63 c40 -48 3
-138 -58 -138 -56 0 -94 76 -64 131 22 42 89 46 122 7z"/>
<path d="M3073 3500 c-29 -17 -53 -47 -53 -67 0 -4 52 -8 115 -8 72 0 115 4
115 10 0 19 -31 55 -60 70 -39 20 -79 19 -117 -5z"/>
<path d="M2126 3510 c-139 -42 -112 -250 33 -250 53 0 84 18 106 60 51 99 -37
220 -139 190z m80 -64 c55 -47 19 -146 -52 -146 -37 0 -74 42 -74 85 0 43 37
85 74 85 14 0 37 -11 52 -24z"/>
</g>
</svg>
