<?xml version="1.0" standalone="no"?>
<!DOCTYPE svg PUBLIC "-//W3C//DTD SVG 20010904//EN"
 "http://www.w3.org/TR/2001/REC-SVG-20010904/DTD/svg10.dtd">
<svg version="1.0" xmlns="http://www.w3.org/2000/svg"
 width="912.000000pt" height="240.000000pt" viewBox="0 0 912.000000 240.000000"
 preserveAspectRatio="xMidYMid meet">
<metadata>
Created by potrace 1.10, written by Peter Selinger 2001-2011
</metadata>
<g transform="translate(0.000000,240.000000) scale(0.100000,-0.100000)"
fill="#000000" stroke="none">
<path d="M0 1810 l0 -590 2250 0 2250 0 0 590 0 590 -2250 0 -2250 0 0 -590z
m791 451 c123 -47 232 -156 279 -278 28 -73 37 -195 20 -272 -26 -118 -119
-250 -216 -307 -157 -92 -355 -89 -505 6 -171 111 -255 326 -204 525 43 162
173 294 336 340 75 21 216 14 290 -14z m3057 -227 c25 -17 29 -56 8 -73 -8 -7
-30 -11 -48 -9 -26 2 -35 9 -43 32 -8 24 -6 31 14 47 28 23 40 24 69 3z
m-2331 -41 c49 -23 73 -66 73 -130 0 -91 -66 -143 -182 -143 l-48 0 0 -65 0
-65 -45 0 -45 0 0 210 0 210 106 0 c78 0 115 -4 141 -17z m615 -35 l3 -43 48
-3 47 -3 0 -39 0 -39 -47 -3 -48 -3 0 -61 c0 -72 14 -94 61 -94 33 0 34 -1 34
-41 l0 -42 -62 7 c-34 4 -70 12 -80 17 -32 17 -48 64 -48 144 0 73 -1 75 -25
75 -22 0 -25 4 -25 35 0 28 5 38 25 47 15 7 27 23 31 42 9 44 11 46 49 46 33
0 34 -1 37 -42z m1125 -43 c50 -21 72 -42 94 -90 24 -52 24 -96 0 -143 -61
-120 -201 -138 -288 -39 -76 86 -45 220 61 268 50 23 85 24 133 4z m-1414 -9
c15 -8 27 -11 27 -5 0 5 18 9 40 9 l40 0 0 -155 0 -155 -40 0 c-22 0 -40 4
-40 9 0 6 -12 3 -27 -5 -37 -19 -107 -18 -150 3 -121 57 -110 258 17 306 29
11 105 7 133 -7z m650 0 c15 -8 27 -11 27 -5 0 5 20 9 45 9 l45 0 0 -155 0
-155 -45 0 c-25 0 -45 4 -45 9 0 5 -14 3 -31 -6 -42 -21 -126 -13 -166 15 -45
32 -66 84 -61 151 5 66 31 110 80 134 41 20 114 22 151 3z m382 -2 c19 -10 31
-11 33 -5 2 6 22 11 44 11 l40 0 -4 -167 c-3 -146 -6 -172 -23 -202 -39 -66
-99 -90 -190 -77 -55 9 -115 62 -115 102 0 23 3 25 40 22 27 -1 47 -10 62 -25
41 -43 128 -19 128 36 0 19 -2 19 -35 5 -48 -20 -85 -18 -135 9 -60 31 -82 75
-78 152 4 70 29 113 80 138 42 21 114 21 153 1z m810 -14 c34 -32 45 -78 45
-192 l0 -98 -50 0 -50 0 0 104 c0 116 -9 136 -60 136 -19 0 -36 -9 -49 -26
-18 -23 -21 -41 -21 -120 l0 -94 -50 0 -50 0 0 155 0 155 40 0 c22 0 40 -4 40
-10 0 -5 15 -2 33 6 49 22 140 14 172 -16z m455 15 c17 -9 30 -11 30 -5 0 5
18 10 40 10 l40 0 0 -156 0 -155 -57 0 c-32 1 -85 -2 -118 -5 -52 -5 -65 -2
-94 18 -59 40 -76 72 -76 143 0 71 17 103 75 143 39 26 116 30 160 7z m-280
-150 l0 -155 -45 0 -45 0 0 155 0 155 45 0 45 0 0 -155z"/>
<path d="M420 1805 l0 -205 45 0 45 0 0 193 0 194 -25 11 c-14 7 -35 12 -45
12 -19 0 -20 -8 -20 -205z"/>
<path d="M580 1970 l0 -40 45 0 45 0 0 -165 0 -165 45 0 45 0 0 153 c0 150 -1
154 -22 165 -19 9 -11 11 45 11 l67 1 0 40 0 40 -135 0 -135 0 0 -40z"/>
<path d="M1367 1923 c-4 -3 -7 -30 -7 -60 l0 -53 54 0 c45 0 58 4 70 22 22 31
20 45 -9 73 -17 18 -35 25 -63 25 -21 0 -42 -3 -45 -7z"/>
<path d="M3155 1828 c-31 -18 -44 -40 -45 -76 0 -75 94 -111 145 -56 65 71
-18 179 -100 132z"/>
<path d="M1715 1815 c-53 -52 -16 -145 57 -145 37 1 59 14 76 47 19 35 14 63
-17 94 -38 37 -82 39 -116 4z"/>
<path d="M2385 1828 c-31 -18 -44 -40 -45 -76 0 -75 94 -111 145 -56 65 71
-18 179 -100 132z"/>
<path d="M2745 1815 c-53 -52 -16 -145 57 -145 37 1 59 14 76 47 19 35 14 63
-17 94 -38 37 -82 39 -116 4z"/>
<path d="M4009 1811 c-36 -36 -37 -70 -3 -110 51 -61 144 -26 144 54 0 79 -84
112 -141 56z"/>
</g>
</svg>
