<?xml version="1.0" encoding="UTF-8" standalone="no"?>
<svg
   version="1.0"
   width="1920.000000pt"
   height="1080.000000pt"
   viewBox="0 0 1920.000000 1080.000000"
   preserveAspectRatio="xMidYMid meet"
   id="svg24"
   sodipodi:docname="itpatagonia_logo.svg"
   inkscape:version="1.1.2 (b8e25be833, 2022-02-05)"
   xmlns:inkscape="http://www.inkscape.org/namespaces/inkscape"
   xmlns:sodipodi="http://sodipodi.sourceforge.net/DTD/sodipodi-0.dtd"
   xmlns="http://www.w3.org/2000/svg"
   xmlns:svg="http://www.w3.org/2000/svg">
  <defs
     id="defs28" />
  <sodipodi:namedview
     id="namedview26"
     pagecolor="#ffffff"
     bordercolor="#666666"
     borderopacity="1.0"
     inkscape:pageshadow="2"
     inkscape:pageopacity="0.0"
     inkscape:pagecheckerboard="0"
     inkscape:document-units="pt"
     showgrid="false"
     inkscape:zoom="0.1566131"
     inkscape:cx="-271.36937"
     inkscape:cy="370.33938"
     inkscape:window-width="1920"
     inkscape:window-height="1017"
     inkscape:window-x="-8"
     inkscape:window-y="-8"
     inkscape:window-maximized="1"
     inkscape:current-layer="svg24" />
  <metadata
     id="metadata2">
Created by potrace 1.10, written by Peter Selinger 2001-2011
</metadata>
  <g
     transform="matrix(0.45575713,0,0,-0.45575713,-65.453543,1370.1056)"
     fill="#000000"
     stroke="none"
     id="g22">
    <path
       d="m 0,1810 v -590 h 2250 2250 v 590 590 H 2250 0 Z m 791,451 c 123,-47 232,-156 279,-278 28,-73 37,-195 20,-272 -26,-118 -119,-250 -216,-307 -157,-92 -355,-89 -505,6 -171,111 -255,326 -204,525 43,162 173,294 336,340 75,21 216,14 290,-14 z m 3057,-227 c 25,-17 29,-56 8,-73 -8,-7 -30,-11 -48,-9 -26,2 -35,9 -43,32 -8,24 -6,31 14,47 28,23 40,24 69,3 z m -2331,-41 c 49,-23 73,-66 73,-130 0,-91 -66,-143 -182,-143 h -48 v -65 -65 h -45 -45 v 210 210 h 106 c 78,0 115,-4 141,-17 z m 615,-35 3,-43 48,-3 47,-3 v -39 -39 l -47,-3 -48,-3 v -61 c 0,-72 14,-94 61,-94 33,0 34,-1 34,-41 v -42 l -62,7 c -34,4 -70,12 -80,17 -32,17 -48,64 -48,144 0,73 -1,75 -25,75 -22,0 -25,4 -25,35 0,28 5,38 25,47 15,7 27,23 31,42 9,44 11,46 49,46 33,0 34,-1 37,-42 z m 1125,-43 c 50,-21 72,-42 94,-90 24,-52 24,-96 0,-143 -61,-120 -201,-138 -288,-39 -76,86 -45,220 61,268 50,23 85,24 133,4 z m -1414,-9 c 15,-8 27,-11 27,-5 0,5 18,9 40,9 h 40 v -155 -155 h -40 c -22,0 -40,4 -40,9 0,6 -12,3 -27,-5 -37,-19 -107,-18 -150,3 -121,57 -110,258 17,306 29,11 105,7 133,-7 z m 650,0 c 15,-8 27,-11 27,-5 0,5 20,9 45,9 h 45 v -155 -155 h -45 c -25,0 -45,4 -45,9 0,5 -14,3 -31,-6 -42,-21 -126,-13 -166,15 -45,32 -66,84 -61,151 5,66 31,110 80,134 41,20 114,22 151,3 z m 382,-2 c 19,-10 31,-11 33,-5 2,6 22,11 44,11 h 40 l -4,-167 c -3,-146 -6,-172 -23,-202 -39,-66 -99,-90 -190,-77 -55,9 -115,62 -115,102 0,23 3,25 40,22 27,-1 47,-10 62,-25 41,-43 128,-19 128,36 0,19 -2,19 -35,5 -48,-20 -85,-18 -135,9 -60,31 -82,75 -78,152 4,70 29,113 80,138 42,21 114,21 153,1 z m 810,-14 c 34,-32 45,-78 45,-192 v -98 h -50 -50 v 104 c 0,116 -9,136 -60,136 -19,0 -36,-9 -49,-26 -18,-23 -21,-41 -21,-120 v -94 h -50 -50 v 155 155 h 40 c 22,0 40,-4 40,-10 0,-5 15,-2 33,6 49,22 140,14 172,-16 z m 455,15 c 17,-9 30,-11 30,-5 0,5 18,10 40,10 h 40 v -156 -155 h -57 c -32,1 -85,-2 -118,-5 -52,-5 -65,-2 -94,18 -59,40 -76,72 -76,143 0,71 17,103 75,143 39,26 116,30 160,7 z m -280,-150 v -155 h -45 -45 v 155 155 h 45 45 z"
       id="path4" />
    <path
       d="m 420,1805 v -205 h 45 45 v 193 194 l -25,11 c -14,7 -35,12 -45,12 -19,0 -20,-8 -20,-205 z"
       id="path6" />
    <path
       d="m 580,1970 v -40 h 45 45 v -165 -165 h 45 45 v 153 c 0,150 -1,154 -22,165 -19,9 -11,11 45,11 l 67,1 v 40 40 H 715 580 Z"
       id="path8" />
    <path
       d="m 1367,1923 c -4,-3 -7,-30 -7,-60 v -53 h 54 c 45,0 58,4 70,22 22,31 20,45 -9,73 -17,18 -35,25 -63,25 -21,0 -42,-3 -45,-7 z"
       id="path10" />
    <path
       d="m 3155,1828 c -31,-18 -44,-40 -45,-76 0,-75 94,-111 145,-56 65,71 -18,179 -100,132 z"
       id="path12" />
    <path
       d="m 1715,1815 c -53,-52 -16,-145 57,-145 37,1 59,14 76,47 19,35 14,63 -17,94 -38,37 -82,39 -116,4 z"
       id="path14" />
    <path
       d="m 2385,1828 c -31,-18 -44,-40 -45,-76 0,-75 94,-111 145,-56 65,71 -18,179 -100,132 z"
       id="path16" />
    <path
       d="m 2745,1815 c -53,-52 -16,-145 57,-145 37,1 59,14 76,47 19,35 14,63 -17,94 -38,37 -82,39 -116,4 z"
       id="path18" />
    <path
       d="m 4009,1811 c -36,-36 -37,-70 -3,-110 51,-61 144,-26 144,54 0,79 -84,112 -141,56 z"
       id="path20" />
  </g>
</svg>
