<?xml version="1.0" standalone="no"?>
<!DOCTYPE svg PUBLIC "-//W3C//DTD SVG 20010904//EN"
 "http://www.w3.org/TR/2001/REC-SVG-20010904/DTD/svg10.dtd">
<svg version="1.0" xmlns="http://www.w3.org/2000/svg"
 width="1920.000000pt" height="1080.000000pt" viewBox="0 0 1920.000000 1080.000000"
 preserveAspectRatio="xMidYMid meet">

<g transform="translate(0.000000,1080.000000) scale(0.100000,-0.100000)"
fill="#000000" stroke="none">
<path d="M7780 7018 c-1 -1353 -1 -1380 -29 -1499 -54 -237 -158 -403 -320
-507 -90 -59 -168 -83 -286 -89 -121 -7 -191 7 -283 52 -174 87 -305 269 -368
510 -32 122 -44 372 -25 506 48 323 213 572 441 665 87 36 243 44 340 19 198
-51 367 -211 453 -428 11 -29 31 -95 44 -147 l23 -95 -6 90 c-6 102 -35 268
-63 370 -77 276 -232 490 -421 582 -103 50 -201 73 -315 73 -472 0 -878 -399
-1007 -990 -32 -147 -37 -436 -10 -595 74 -432 317 -784 657 -950 139 -69 238
-95 385 -102 190 -9 350 34 506 139 89 60 209 185 251 264 l32 59 1 -202 0
-203 265 0 265 0 0 1750 0 1750 -265 0 -265 0 0 -1022z"/>
<path d="M15152 8025 c-107 -30 -179 -82 -216 -157 -34 -67 -33 -119 0 -187
113 -226 554 -223 664 5 61 126 -23 275 -185 329 -69 24 -197 29 -263 10z"/>
<path d="M3995 7164 c-248 -42 -483 -169 -670 -365 -183 -192 -299 -413 -357
-682 -29 -137 -32 -417 -5 -552 27 -133 71 -260 130 -377 280 -551 867 -823
1426 -662 302 88 569 300 739 589 40 68 122 252 122 274 0 8 -83 11 -270 11
l-270 0 -26 -52 c-68 -135 -140 -228 -237 -304 -87 -68 -171 -108 -272 -129
-297 -62 -604 133 -745 472 -37 88 -75 234 -82 311 l-5 52 990 0 990 0 -6 138
c-11 222 -57 400 -151 586 -189 371 -528 629 -911 691 -109 18 -282 18 -390
-1z m376 -434 c209 -70 382 -250 475 -497 l24 -63 -675 0 -674 0 19 55 c89
258 304 469 530 520 86 20 217 13 301 -15z"/>
<path d="M8810 7113 c0 -4 156 -483 346 -1063 190 -580 380 -1157 420 -1282
l75 -228 449 0 449 0 56 173 c31 94 220 672 421 1283 200 611 364 1113 364
1117 0 4 -125 7 -277 7 l-278 0 -365 -1200 c-200 -660 -367 -1200 -370 -1200
-4 0 -170 539 -371 1198 l-364 1197 -278 3 c-152 1 -277 -1 -277 -5z"/>
<path d="M12010 6885 l0 -235 575 0 575 0 0 -123 c0 -152 -15 -203 -77 -263
-68 -66 -97 -72 -413 -78 -343 -7 -454 -27 -625 -113 -373 -188 -552 -581
-440 -966 87 -303 302 -517 600 -598 108 -30 330 -33 419 -5 283 86 474 356
523 740 6 46 9 2 13 -174 l5 -235 32 -67 c39 -84 114 -160 191 -196 57 -27 59
-27 315 -30 l257 -3 0 235 0 236 -135 0 -135 0 0 880 c0 613 -3 895 -11 932
-25 118 -98 209 -209 262 l-65 31 -697 3 -698 3 0 -236z m1148 -1175 l-3 -365
-31 -65 c-17 -36 -48 -84 -68 -107 -57 -65 -170 -136 -272 -169 -77 -25 -104
-29 -204 -29 -161 0 -258 34 -355 126 -94 89 -137 213 -115 337 25 145 115
247 259 293 55 18 102 23 286 28 251 8 277 15 353 92 70 71 121 205 139 367
l8 67 3 -105 c2 -58 2 -269 0 -470z"/>
<path d="M14400 6911 l0 -211 300 0 299 0 3 -692 3 -693 24 -53 c64 -141 272
-236 613 -279 l143 -18 -707 -3 -708 -2 0 -210 0 -210 900 0 900 0 0 209 0
208 -102 7 c-269 18 -439 101 -507 245 l-26 56 -5 785 -5 785 -23 56 c-39 98
-110 164 -217 204 -45 17 -89 20 -467 23 l-418 3 0 -210z"/>
</g>
</svg>
