<svg xmlns="http://www.w3.org/2000/svg" width="1080" height="917" viewBox="0 0 1080 917" fill="none">
<path d="M105.223 273.627C77.3811 273.627 50.679 284.605 30.9914 304.147C11.3038 323.689 0.24341 350.193 0.24341 377.829L0 534.928C0 562.568 11.1181 589.075 30.9084 608.619C50.6986 628.163 77.54 639.143 105.528 639.143L194.467 638.937C212.933 638.937 230.647 631.716 243.736 618.854C256.826 605.992 264.225 588.535 264.317 570.299V456.202C264.311 449.325 261.54 442.731 256.614 437.871C253.753 435.047 250.3 432.943 246.544 431.675L234.463 430.28H171.661C168.695 430.28 166.654 433.252 167.723 436.012L184.689 479.796C185.319 481.419 186.883 482.49 188.627 482.49H207.644C209.976 482.49 211.866 484.376 211.866 486.703V560.713C211.806 567.548 209.036 574.087 204.151 578.929C199.266 583.77 192.654 586.529 185.733 586.612C159.074 587.04 132.399 586.933 105.736 586.933C70.8228 586.544 52.9607 558.494 52.9607 524.015L52.9293 388.741C52.9293 354.267 70.6988 326.22 105.431 325.831L239.194 326.007C240.866 326.01 242.382 325.026 243.06 323.5L262.542 279.599C263.778 276.815 261.737 273.683 258.686 273.68C207.532 273.626 156.378 273.627 105.223 273.627Z" fill="#080808"/>
<path fill-rule="evenodd" clip-rule="evenodd" d="M541.093 638.931C510.516 638.931 483.126 620.988 477.958 592.65L443.926 331.29C443.926 331.29 443.926 313.941 426.826 313.941C409.726 313.941 409.726 330.673 409.726 330.673L388.65 634.834C388.491 637.141 386.545 638.931 384.199 638.931H337.179C334.591 638.931 332.547 636.77 332.728 634.226L354.851 324.218C357.508 293.458 384.317 259.756 426.995 259.756C474.987 259.756 497.521 301.172 498.753 323.363L530.321 574.944C530.628 577.54 531.895 579.934 533.881 581.672C535.867 583.41 538.434 584.371 541.093 584.371C543.752 584.371 546.319 583.41 548.305 581.672C550.291 579.934 551.558 577.54 551.865 574.944L583.457 323.363C584.785 301.219 607.223 259.756 655.191 259.756C697.917 259.756 724.702 293.458 727.287 324.218L750.676 634.209C750.868 636.758 748.821 638.931 746.227 638.931H701.511C699.184 638.931 697.248 637.169 697.063 634.884L672.484 330.673C672.484 330.673 672.484 314.059 655.36 314.059C638.235 314.059 638.26 331.409 638.26 331.409L604.228 592.65C599.011 620.988 571.695 638.931 541.093 638.931Z" fill="#080808"/>
<path d="M999.955 272.395C1034.96 272.395 1063.34 300.688 1063.34 335.59V380.013C1063.34 401.068 1054.57 425.328 1039.3 439.597C1036.17 442.519 1032.53 444.813 1028.77 446.859L873.807 531.177C870.882 532.769 868.032 534.54 865.659 536.872C857.007 545.374 852.059 552.772 852.059 565.021C852.059 568.043 852.059 581.033 852.059 585.067C852.059 585.731 852.597 586.267 853.261 586.267H1056.4C1058.05 586.267 1059.55 587.227 1060.24 588.725L1079.61 632.962C1080.89 635.753 1078.85 638.93 1075.77 638.93H830.931C814.595 638.93 801.352 625.727 801.352 609.439V571.502C801.352 542.846 813.052 515.58 833.5 495.839C838.209 491.293 843.801 487.794 849.585 484.718L992.072 408.938C1008.41 398.786 1012.63 378.615 1012.63 362.002V356.656C1012.63 338.041 997.343 325.058 978.673 325.058H848.537C846.832 325.058 845.293 324.035 844.637 322.465L827.03 278.228C825.87 275.453 827.915 272.395 830.931 272.395H999.955Z" fill="#080808"/>
<path d="M927.135 635.218C858.53 778.124 711.711 876.878 541.664 876.878C371.607 876.878 224.781 778.113 156.181 635.195C221.365 794.488 369.435 905.71 541.663 905.71C713.883 905.71 861.947 794.499 927.135 635.218Z" fill="url(#paint0_linear_63_690)"/>
<path d="M927.133 270.905C858.528 128.002 711.709 29.2487 541.664 29.2486C371.609 29.2486 224.784 128.012 156.183 270.928C221.368 111.638 369.436 0.418006 541.663 0.418036C713.881 0.418066 861.944 111.627 927.133 270.905Z" fill="url(#paint1_linear_63_690)"/>
<defs>
<linearGradient id="paint0_linear_63_690" x1="927.135" y1="0.418103" x2="-28.1866" y2="622.645" gradientUnits="userSpaceOnUse">
<stop stop-color="#FF5900"/>
<stop offset="0.494792" stop-color="#E968FE"/>
<stop offset="1" stop-color="#602EE1"/>
</linearGradient>
<linearGradient id="paint1_linear_63_690" x1="927.135" y1="0.418103" x2="-28.1866" y2="622.645" gradientUnits="userSpaceOnUse">
<stop stop-color="#FF5900"/>
<stop offset="0.494792" stop-color="#E968FE"/>
<stop offset="1" stop-color="#602EE1"/>
</linearGradient>
</defs>
</svg>
