<svg width="488" height="98" viewBox="0 0 488 98" fill="none" xmlns="http://www.w3.org/2000/svg">
<path d="M87.1762 75.2293V20.4117C87.1762 11.5005 79.8493 4.20947 70.8942 4.20947H21.6414L30.1894 20.4117H70.0801C70.555 20.4117 70.9621 20.8168 70.9621 21.2893V73.8116C70.9621 74.2841 70.555 74.6892 70.0801 74.6892H23.4052V90.959H70.9621C79.7814 91.229 87.1762 84.1405 87.1762 75.2293Z" fill="#FF5566"/>
<path d="M16.6211 60.0397H32.3603C36.8379 59.9722 40.4335 56.3942 40.4335 51.9385C40.4335 50.3858 40.0264 48.9681 39.2802 47.753L13.0255 4.41199C7.19119 5.55965 2.51013 9.74523 0.678414 15.281L17.9101 43.7699H16.5533H16.2819H16.0106H0V74.5542V74.6217C0 83.4654 7.12335 90.6889 16.0106 90.8239H16.2819H16.6211V60.0397Z" fill="#FF5566"/>
<path d="M188.773 20.7739C183.075 20.7739 177.579 22.4503 169.642 31.4358C161.908 22.4503 157.091 20.7739 150.036 20.7739C143.659 20.1704 137.282 22.3162 132.601 26.6749C128.666 31.2347 126.698 37.0686 127.038 43.0366V73.0778H142.98V45.6518C142.777 42.8354 143.794 40.0861 145.626 38.0074C147.526 36.1298 150.171 35.1239 152.885 35.258C155.734 35.1239 158.448 36.1968 160.416 38.2085C161.976 40.2873 162.79 42.8354 162.654 45.3835C162.654 45.4506 162.654 45.5847 162.654 45.6518V73.0778H176.63V46.8588C176.155 43.9754 176.901 41.0249 178.529 38.6109C180.497 36.5992 183.278 35.5263 186.06 35.6604C188.773 35.5263 191.419 36.5321 193.319 38.4097C195.218 40.4884 196.168 43.2377 195.964 46.0541V73.0107H212.179V42.9695C212.518 37.0015 210.55 31.1676 206.616 26.6078C201.663 22.3833 195.286 20.3045 188.773 20.7739Z" fill="#FF5566"/>
<path d="M254.919 48.1999C255.122 51.3515 254.105 54.5032 252.137 56.9172C250.17 58.9959 247.32 60.1359 244.471 60.0018C241.69 60.1359 238.976 59.063 237.009 57.0513C235.041 54.7714 234.024 51.8209 234.227 48.8034V20.7068H218.284V50.8151C217.945 56.716 219.845 62.5499 223.576 67.1768C227.239 71.2002 232.463 73.346 237.89 73.1448C241.554 73.2119 245.15 72.2731 248.27 70.4626C251.187 68.7191 253.494 66.238 254.987 63.2205V72.6083H271.133V20.7068H254.919V48.1999Z" fill="#FF5566"/>
<path d="M314.755 30.0947C313.466 27.0772 311.295 24.462 308.446 22.7856C305.325 20.908 301.729 19.9692 298.134 20.1033C294.063 20.0363 289.993 21.1762 286.533 23.322C283.005 25.6019 280.224 28.7536 278.46 32.5087C274.525 41.4943 274.525 51.7539 278.46 60.7394C280.224 64.4946 283.005 67.7133 286.533 69.9932C289.993 72.139 294.063 73.2789 298.134 73.2119C301.797 73.2789 305.325 72.4072 308.446 70.5296C311.295 68.7862 313.466 66.238 314.755 63.2205V72.6084H330.833V3.87573H314.755V30.0947ZM311.566 55.8443C307.021 60.4041 299.559 60.4041 294.945 55.9114C290.739 50.4128 290.739 42.8354 294.945 37.3368C297.116 35.0569 300.169 33.8499 303.29 33.984C306.41 33.8499 309.463 35.1239 311.634 37.4038C315.976 42.8354 315.976 50.4128 311.566 55.8443Z" fill="#FF5566"/>
<path d="M374.998 30.0947C373.641 27.0772 371.47 24.529 368.621 22.7856C365.5 20.908 361.904 19.9692 358.309 20.1033C354.238 20.0362 350.168 21.1762 346.708 23.322C343.18 25.6019 340.399 28.7536 338.635 32.5087C334.7 41.4942 334.7 51.7538 338.635 60.7394C340.399 64.4945 343.18 67.7132 346.708 69.9931C350.168 72.1389 354.238 73.2789 358.309 73.2118C361.972 73.2789 365.5 72.4072 368.621 70.5296C371.47 68.7861 373.709 66.238 374.998 63.2205V72.6083H390.94V20.7068H374.998V30.0947ZM371.741 55.8443C367.196 60.4041 359.733 60.4041 355.12 55.9113C350.914 50.4127 350.914 42.8354 355.12 37.3368C357.291 35.0568 360.344 33.8498 363.465 33.9839C366.585 33.9169 369.638 35.1239 371.741 37.4038C376.083 42.7683 376.083 50.4127 371.741 55.8443Z" fill="#FF5566"/>
<path d="M469.23 20.7069L457.493 52.4244L444.942 20.7069H418.213C418.145 18.6952 418.823 16.8176 420.18 15.3424C421.808 14.0683 423.844 13.4648 425.879 13.6659L427.643 13.733V0.12059C426.897 0.0535342 425.743 0.0535302 424.251 0.0535302C418.281 -0.348807 412.378 1.52877 407.765 5.28392C403.763 9.24024 401.727 14.6047 402.067 20.1704V20.7069H395.757V34.1181H402.067V72.5413H418.145V34.1181H432.867L448.945 70.5967L436.666 97.218H454.304L487.004 20.7739L469.23 20.7069Z" fill="#FF5566"/>
</svg>
